<svg width="16px" height="16px" viewBox="0 0 16 16" version="1.1" xmlns="http://www.w3.org/2000/svg" xmlns:xlink="http://www.w3.org/1999/xlink">
    <!-- Generator: Sketch 53.2 (72643) - https://sketchapp.com -->
    <title>close_button</title>
    <desc>Created with Sketch.</desc>
    <g id="Page-2" stroke="none" stroke-width="1" fill="none" fill-rule="evenodd">
        <g id="sr_labs__microsite__webpage_menu" transform="translate(-33.000000, -305.000000)" fill="#232D45" fill-rule="nonzero">
            <path d="M39.68934,312.731292 L33.21934,306.261292 C32.9439812,305.965783 32.9521062,305.505283 33.2377182,305.219671 C33.5233303,304.934059 33.9838303,304.925934 34.27934,305.201292 L40.74934,311.671292 L47.21934,305.201292 C47.5148498,304.925934 47.9753498,304.934059 48.2609618,305.219671 C48.5465739,305.505283 48.5546989,305.965783 48.27934,306.261292 L41.80934,312.731292 L48.27934,319.201292 C48.5717934,319.49411 48.5717934,319.968475 48.27934,320.261292 C48.1394562,320.402929 47.9484065,320.482232 47.74934,320.481292 C47.5502736,320.482232 47.3592239,320.402929 47.21934,320.261292 L40.74934,313.791292 L34.27934,320.261292 C34.1394562,320.402929 33.9484065,320.482232 33.74934,320.481292 C33.5502736,320.482232 33.3592239,320.402929 33.21934,320.261292 C32.9268867,319.968475 32.9268867,319.49411 33.21934,319.201292 L39.68934,312.731292 Z" id="close_button"></path>
        </g>
    </g>
</svg>