<svg width="32px" height="22px" viewBox="0 0 32 22" version="1.1" xmlns="http://www.w3.org/2000/svg" xmlns:xlink="http://www.w3.org/1999/xlink">
    <!-- Generator: Sketch 53.2 (72643) - https://sketchapp.com -->
    <title>Email_icon</title>
    <desc>Created with Sketch.</desc>
    <g id="Page-2" stroke="none" stroke-width="1" fill="none" fill-rule="evenodd" opacity="0.200000003">
        <g id="sr__microsite__contact_page" transform="translate(-256.000000, -363.000000)" fill="#FFFFFF" fill-rule="nonzero" stroke="#FFFFFF" stroke-width="0.7">
            <g id="Email_icon" transform="translate(257.000000, 364.000000)">
                <path d="M28.2394366,20 L1.76056338,20 C0.789788732,20 0,19.2157343 0,18.2517483 L0,1.74825175 C0,0.784265734 0.789788732,0 1.76056338,0 L28.2394366,0 C29.2102113,0 30,0.784265734 30,1.74825175 L30,18.2517483 C30,19.2157343 29.2102113,20 28.2394366,20 Z M1.76056338,0.41958042 C1.02274648,0.41958042 0.422535211,1.01559441 0.422535211,1.74825175 L0.422535211,18.2517483 C0.422535211,18.9844056 1.02274648,19.5804196 1.76056338,19.5804196 L28.2394366,19.5804196 C28.9772535,19.5804196 29.5774648,18.9844056 29.5774648,18.2517483 L29.5774648,1.74825175 C29.5774648,1.01559441 28.9772535,0.41958042 28.2394366,0.41958042 L1.76056338,0.41958042 Z" id="Shape"></path>
                <path d="M15,12.3615385 C14.951338,12.3615385 14.9026056,12.3448951 14.863169,12.3116084 L4.02894366,3.16685315 C3.94,3.09181818 3.92922535,2.95944056 4.00478873,2.87111888 C4.08028169,2.78286713 4.21366197,2.7720979 4.30260563,2.84713287 L15,11.8763636 L25.6973239,2.84713287 C25.7861972,2.77216783 25.9195775,2.7827972 25.9951408,2.87111888 C26.0707042,2.95937063 26.0598592,3.09181818 25.9709859,3.16685315 L15.1367606,12.3116084 C15.0973944,12.3448252 15.048662,12.3615385 15,12.3615385 Z" id="Path"></path>
                <path d="M4.16570423,17.2027972 C4.11422535,17.2027972 4.06267606,17.1841958 4.02197183,17.1467133 C3.93647887,17.0679021 3.9315493,16.9351748 4.01091549,16.8502797 L11.053169,9.31937063 C11.1324648,9.23440559 11.2662676,9.22951049 11.3517606,9.30839161 C11.4372535,9.3872028 11.4421831,9.51993007 11.3628169,9.6048951 L4.32056338,17.1357343 C4.27894366,17.1802797 4.22239437,17.2027972 4.16570423,17.2027972 Z" id="Path"></path>
                <path d="M25.8342958,17.2027972 C25.7775352,17.2027972 25.7210563,17.1802797 25.6794366,17.1357343 L18.6371831,9.6048951 C18.5577465,9.52 18.5626761,9.38727273 18.6482394,9.30839161 C18.7337324,9.22944056 18.8673944,9.23454545 18.9467606,9.31937063 L25.9890141,16.8502797 C26.0684507,16.9351748 26.0635211,17.0679021 25.9779577,17.1467133 C25.9373239,17.1841958 25.8857042,17.2027972 25.8342958,17.2027972 Z" id="Path"></path>
            </g>
        </g>
    </g>
</svg>