<svg width="32px" height="32px" viewBox="0 0 32 32" version="1.1" xmlns="http://www.w3.org/2000/svg" xmlns:xlink="http://www.w3.org/1999/xlink">
    <!-- Generator: Sketch 53.2 (72643) - https://sketchapp.com -->
    <title>location_icon</title>
    <desc>Created with Sketch.</desc>
    <g id="Page-2" stroke="none" stroke-width="1" fill="none" fill-rule="evenodd" opacity="0.200000003">
        <g id="sr__microsite__contact_page" transform="translate(-257.000000, -422.000000)" fill="#FFFFFF" fill-rule="nonzero" stroke="#2B3652">
            <path d="M265.661758,435.918388 L271.894831,446.364388 C272.127032,446.753403 272.546672,446.991675 272.999717,446.991743 C273.452762,446.991812 273.872473,446.753666 274.104791,446.364721 L280.338191,435.918388 C282.476784,432.331293 281.708683,427.723845 278.522087,425.024505 C275.335492,422.325165 270.664457,422.325165 267.477862,425.024505 C264.291266,427.723845 263.523165,432.331293 265.661758,435.918388 Z M268.752905,426.565054 C271.189653,424.486221 274.773052,424.476782 277.220719,426.542748 C279.668386,428.608714 280.260846,432.142809 278.620741,434.894054 L272.999975,444.313781 L267.379208,434.894061 C265.737053,432.155672 266.318362,428.631071 268.752905,426.565048 L268.752905,426.565054 Z M272.999975,435.526944 C275.300023,435.526024 277.163921,433.660883 277.163308,431.360834 C277.162694,429.060785 275.297802,427.196638 272.997753,427.196945 C270.697704,427.197251 268.833308,429.061895 268.833308,431.361944 C268.836353,433.661599 270.700319,435.52482 272.999975,435.526944 Z M272.999975,429.196151 C274.196,429.19663 275.165227,430.166503 275.164908,431.362529 C275.164589,432.558554 274.194845,433.52791 272.998819,433.527751 C271.802794,433.527591 270.833308,432.557977 270.833308,431.361951 C270.83493,430.166147 271.80417,429.197295 272.999975,429.196151 L272.999975,429.196151 Z M286.999975,452.989334 L258.999975,452.989334 C258.679826,452.989467 258.378987,452.836238 258.190838,452.577211 C258.002689,452.318184 257.950001,451.984707 258.049128,451.680291 L261.304988,441.684291 C261.439129,441.27267 261.822908,440.994112 262.255835,440.994138 L266.158835,440.994138 C266.516392,440.993485 266.847067,441.183864 267.026035,441.493409 C267.205002,441.802954 267.205002,442.184518 267.026035,442.494063 C266.847067,442.803608 266.516392,442.993987 266.158835,442.993334 L262.982071,442.993334 L260.377255,450.990138 L285.622695,450.990138 L283.017878,442.993334 L279.841121,442.993334 C279.483564,442.993987 279.152889,442.803608 278.973921,442.494063 C278.794954,442.184518 278.794954,441.802954 278.973921,441.493409 C279.152889,441.183864 279.483564,440.993485 279.841121,440.994138 L283.744121,440.994138 C284.177054,440.994111 284.560838,441.272676 284.694975,441.684304 L287.950835,451.680304 C288.049957,451.98472 287.997265,452.318197 287.809114,452.577221 C287.620962,452.836245 287.320122,452.98947 286.999975,452.989334 Z" id="location_icon"></path>
        </g>
    </g>
</svg>